<svg id="Layer_1" data-name="Layer 1" xmlns="http://www.w3.org/2000/svg" xmlns:xlink="http://www.w3.org/1999/xlink" viewBox="0 0 442.3712 270.9275">
	<defs>
		<linearGradient id="linear-gradient" x1="258.7017" y1="244.7146" x2="220.6368" y2="322.3669" gradientUnits="userSpaceOnUse">
			<stop offset="0" stop-color="#3f873f" />
			<stop offset="0.3296" stop-color="#3f8b3d" />
			<stop offset="0.6368" stop-color="#3e9637" />
			<stop offset="0.9342" stop-color="#3da92e" />
			<stop offset="1" stop-color="#3dae2b" />
		</linearGradient>
		<clipPath id="clip-path" transform="translate(-78.3058 -164.017)">
			<path d="M244.12,226.6073a5.0871,5.0871,0,0,0-5.0873,0l-42.1338,24.3142a5.0863,5.0863,0,0,0-2.5455,4.4076V303.995a5.0922,5.0922,0,0,0,2.5438,4.4076l42.1338,24.3339a5.092,5.092,0,0,0,5.0907,0l42.124-24.3339a5.0926,5.0926,0,0,0,2.5435-4.4076V255.3274a5.0859,5.0859,0,0,0-2.5452-4.4059Z" style="fill: url(#linear-gradient);clip-rule: evenodd" />
		</clipPath>
		<linearGradient id="linear-gradient-3" x1="235.1577" y1="285.3534" x2="341.9649" y2="206.4385" gradientUnits="userSpaceOnUse">
			<stop offset="0.1376" stop-color="#3f873f" />
			<stop offset="0.3974" stop-color="#529f44" />
			<stop offset="0.7113" stop-color="#63b649" />
			<stop offset="0.9081" stop-color="#6abf4b" />
		</linearGradient>
		<linearGradient id="linear-gradient-4" x1="114.5565" y1="53.8174" x2="211.9735" y2="53.8174" gradientUnits="userSpaceOnUse">
			<stop offset="0.0919" stop-color="#6abf4b" />
			<stop offset="0.2887" stop-color="#63b649" />
			<stop offset="0.6026" stop-color="#529f44" />
			<stop offset="0.8624" stop-color="#3f873f" />
		</linearGradient>
		<linearGradient id="linear-gradient-5" x1="192.8623" y1="279.6515" x2="290.2793" y2="279.6515" xlink:href="#linear-gradient-4" />
		<linearGradient id="linear-gradient-6" x1="114.5565" y1="143.4452" x2="211.9735" y2="143.4452" xlink:href="#linear-gradient-4" />
		<linearGradient id="linear-gradient-7" x1="192.8623" y1="320.0318" x2="290.2793" y2="320.0318" xlink:href="#linear-gradient-4" />
		<linearGradient id="linear-gradient-8" x1="304.4718" y1="242.4124" x2="244.3912" y2="364.9768" xlink:href="#linear-gradient" />
	</defs>
	<g>
		<path d="M296.9532,434.9444a8.3723,8.3723,0,0,1-4.19-1.1213l-13.3385-7.8916c-1.9906-1.1145-1.0184-1.5092-.3618-1.7382a26.5944,26.5944,0,0,0,6.0308-2.7433,1.0246,1.0246,0,0,1,.9919.0761l10.247,6.0838a1.317,1.317,0,0,0,1.2375,0l39.95-23.0584a1.26,1.26,0,0,0,.61-1.0812V357.3669a1.289,1.289,0,0,0-.62-1.1013l-39.9333-23.0383a1.2512,1.2512,0,0,0-1.2307,0L256.423,356.2724a1.2834,1.2834,0,0,0-.6335,1.0945V403.47a1.2243,1.2243,0,0,0,.63,1.068l10.9437,6.3229c5.9378,2.9689,9.5734-.5275,9.5734-4.0406V361.3011a1.15,1.15,0,0,1,1.1611-1.1508h5.0658a1.1529,1.1529,0,0,1,1.1576,1.1508v45.5195c0,7.925-4.3157,12.47-11.8293,12.47-2.3088,0-4.1268,0-9.2021-2.5011l-10.476-6.0308a8.4379,8.4379,0,0,1-4.19-7.288V357.3669a8.4187,8.4187,0,0,1,4.19-7.2813l39.95-23.0848a8.7532,8.7532,0,0,1,8.396,0l39.9467,23.0848a8.4329,8.4329,0,0,1,4.1961,7.2813V403.47a8.4563,8.4563,0,0,1-4.1961,7.288L301.16,433.8231A8.3785,8.3785,0,0,1,296.9532,434.9444Z" transform="translate(-78.3058 -164.017)" style="fill: #679e63" />
		<path d="M309.2934,403.1816c-17.4817,0-21.1442-8.0245-21.1442-14.7551a1.1483,1.1483,0,0,1,1.1546-1.1512h5.1649a1.1573,1.1573,0,0,1,1.1478.9787c.78,5.2577,3.1048,7.9117,13.6769,7.9117,8.4161,0,11.9988-1.904,11.9988-6.3692,0-2.5741-1.0154-4.4849-14.095-5.7655-10.93-1.0812-17.6913-3.4964-17.6913-12.2407,0-8.0608,6.7937-12.8677,18.1855-12.8677,12.7977,0,19.1305,4.4418,19.9332,13.9724a1.1551,1.1551,0,0,1-1.1508,1.2572h-5.185a1.1507,1.1507,0,0,1-1.1213-.9022c-1.244-5.5332-4.2692-7.3013-12.4761-7.3013-9.1889,0-10.2572,3.2012-10.2572,5.5994,0,2.9061,1.2606,3.7519,13.6673,5.3939,12.277,1.6224,18.1088,3.9211,18.1088,12.5495C329.21,398.196,321.9522,403.1816,309.2934,403.1816Z" transform="translate(-78.3058 -164.017)" style="fill: #679e63" />
	</g>
	<path d="M366.8987,354.8307a7.6994,7.6994,0,1,1-7.6993-7.7011A7.72,7.72,0,0,1,366.8987,354.8307Zm-14.1548-.0214a6.457,6.457,0,1,0,6.4354-6.4357A6.4593,6.4593,0,0,0,352.7439,354.8093Zm3.5627-4.2977h2.9757c1.0183,0,3.0153,0,3.0153,2.2823a1.9843,1.9843,0,0,1-1.6322,2.118c1.1842.0815,1.264.856,1.4264,1.9556a8.5014,8.5014,0,0,0,.4481,2.2806h-1.8313c-.0432-.4062-.3285-2.6074-.3285-2.7283-.1192-.49-.2853-.7331-.8954-.7331h-1.5062v3.4614h-1.6719Zm1.6322,3.7885h1.3435a1.1614,1.1614,0,0,0,1.3037-1.2208c0-1.1828-.8163-1.1828-1.264-1.1828h-1.3832Z" transform="translate(-78.3058 -164.017)" style="fill: #679e63" />
	<path d="M173.2428,254.5671a5.1082,5.1082,0,0,0-2.5578-4.4451L128.33,225.7466a4.9926,4.9926,0,0,0-2.332-.6736h-.4378a5.064,5.064,0,0,0-2.3388.6736L80.8667,250.122a5.1323,5.1323,0,0,0-2.5609,4.4451l.0931,65.6352a2.5137,2.5137,0,0,0,1.2772,2.2093,2.46,2.46,0,0,0,2.5409,0l25.1715-14.4136a5.1541,5.1541,0,0,0,2.5609-4.4384V272.895a5.0967,5.0967,0,0,1,2.5542-4.4285l10.7181-6.1735a5.09,5.09,0,0,1,2.5643-.6869,5.0092,5.0092,0,0,1,2.5443.6869l10.7148,6.1735a5.1,5.1,0,0,1,2.5575,4.4285V303.56a5.1659,5.1659,0,0,0,2.5643,4.4384l25.1647,14.4136a2.49,2.49,0,0,0,2.5576,0,2.5563,2.5563,0,0,0,1.2707-2.2093Z" transform="translate(-78.3058 -164.017)" style="fill: #fff;fill-rule: evenodd" />
	<path d="M377.0405,164.3406a2.5584,2.5584,0,0,0-3.8052,2.2341v65a1.7895,1.7895,0,0,1-2.6852,1.5507l-10.6085-6.112a5.1172,5.1172,0,0,0-5.112.0017L312.458,251.4685a5.1148,5.1148,0,0,0-2.5592,4.43v48.9164a5.12,5.12,0,0,0,2.5578,4.4319l42.37,24.4715a5.12,5.12,0,0,0,5.1185,0l42.3764-24.4715a5.12,5.12,0,0,0,2.5578-4.4319V182.8794a5.1166,5.1166,0,0,0-2.6241-4.4686Zm-3.9312,124.4025a1.2758,1.2758,0,0,1-.64,1.1064l-14.5479,8.3858a1.2806,1.2806,0,0,1-1.2768,0L342.0961,289.85a1.2755,1.2755,0,0,1-.64-1.1064V271.9445a1.2817,1.2817,0,0,1,.6386-1.108l14.5479-8.4026a1.2792,1.2792,0,0,1,1.28,0l14.5479,8.4026a1.2823,1.2823,0,0,1,.6386,1.108Z" transform="translate(-78.3058 -164.017)" style="fill: #fff;fill-rule: evenodd" />
	<g>
		<path d="M518.1311,271.505a5.1163,5.1163,0,0,0,2.5459-4.4238V255.2271a5.1169,5.1169,0,0,0-2.5476-4.4251L476.03,226.3587a5.1164,5.1164,0,0,0-5.1269-.0067l-42.3563,24.4531a5.116,5.116,0,0,0-2.5579,4.43v48.9031a5.1144,5.1144,0,0,0,2.5844,4.4452l42.0927,23.9854a5.114,5.114,0,0,0,5.0172.0281l25.46-14.1513a2.5591,2.5591,0,0,0,.0316-4.4551L458.55,289.5261a2.5576,2.5576,0,0,1-1.2854-2.2195V271.9809a2.5564,2.5564,0,0,1,1.28-2.2158l13.2658-7.6481a2.5543,2.5543,0,0,1,2.5541,0l13.2727,7.6481a2.5564,2.5564,0,0,1,1.28,2.2158v12.0582a2.5583,2.5583,0,0,0,3.8432,2.2127Z" transform="translate(-78.3058 -164.017)" style="fill: #fff;fill-rule: evenodd" />
		<path d="M472.8422,269.2144a.98.98,0,0,1,.982,0l8.13,4.69a.9826.9826,0,0,1,.4909.8509v9.3879a.9826.9826,0,0,1-.4909.8509l-8.13,4.69a.98.98,0,0,1-.982,0l-8.124-4.69a.9826.9826,0,0,1-.4909-.8509v-9.3879a.9826.9826,0,0,1,.4909-.8509Z" transform="translate(-78.3058 -164.017)" style="fill: #679e63;fill-rule: evenodd" />
	</g>
	<g>
		<path d="M244.12,226.6073a5.0871,5.0871,0,0,0-5.0873,0l-42.1338,24.3142a5.0863,5.0863,0,0,0-2.5455,4.4076V303.995a5.0922,5.0922,0,0,0,2.5438,4.4076l42.1338,24.3339a5.092,5.092,0,0,0,5.0907,0l42.124-24.3339a5.0926,5.0926,0,0,0,2.5435-4.4076V255.3274a5.0859,5.0859,0,0,0-2.5452-4.4059Z" transform="translate(-78.3058 -164.017)" style="fill-rule: evenodd;fill: url(#linear-gradient)" />
		<g style="clip-path: url(#clip-path)">
			<g>
				<path d="M238.944,226.6072l-42.222,24.3142A5.2584,5.2584,0,0,0,194,255.329v48.6661a4.9214,4.9214,0,0,0,1.3133,3.2382l47.44-81.1524A5.1684,5.1684,0,0,0,238.944,226.6072Z" transform="translate(-78.3058 -164.017)" style="fill: none" />
				<path d="M242.9877,333.2289a5.0706,5.0706,0,0,0,1.1864-.4924l42.1767-24.3339A5.1939,5.1939,0,0,0,289,303.9951V255.3274a5.0281,5.0281,0,0,0-1.54-3.5341Z" transform="translate(-78.3058 -164.017)" style="fill: none" />
				<path d="M286.3271,250.9214l-42.2517-24.3142a5.0568,5.0568,0,0,0-1.3224-.5263l-47.44,81.1524a5.8,5.8,0,0,0,1.42,1.1693l42.3234,24.3339a5.141,5.141,0,0,0,3.9308.4924L287.46,251.7933A5.5386,5.5386,0,0,0,286.3271,250.9214Z" transform="translate(-78.3058 -164.017)" style="fill: url(#linear-gradient-3)" />
			</g>
			<g>
				<path d="M289,303.9951V255.3274a5.2091,5.2091,0,0,0-2.6729-4.406l-42.2517-24.3142a5.0674,5.0674,0,0,0-1.5507-.5708l46.3173,79.1281A4.6789,4.6789,0,0,0,289,303.9951Z" transform="translate(-78.3058 -164.017)" style="fill: none" />
				<path d="M196.722,250.9214A5.2584,5.2584,0,0,0,194,255.329v48.6661a5.2777,5.2777,0,0,0,2.7335,4.4075l42.3234,24.3339a5.1336,5.1336,0,0,0,3.2565.6323l-45.3373-82.5937Z" transform="translate(-78.3058 -164.017)" style="fill: none" />
				<polygon points="159.321 53.652 158.742 53.983 159.515 53.983 159.321 53.652" style="fill: url(#linear-gradient-4)" />
				<path d="M286.3508,308.4026a5.3252,5.3252,0,0,0,2.4912-3.2381l-46.3173-79.1281a5.1584,5.1584,0,0,0-3.5807.5708l-41.9679,24.1679,45.3373,82.5937a5.0976,5.0976,0,0,0,1.8607-.6323Z" transform="translate(-78.3058 -164.017)" style="fill: url(#linear-gradient-5)" />
				<polygon points="211.973 143.603 211.694 143.126 211.694 143.765 211.973 143.603" style="fill: url(#linear-gradient-6)" />
				<path d="M286.3508,308.4026l-42.1767,24.3339a5.0976,5.0976,0,0,1-1.8607.6323l.84,1.53L290,307.7816v-.6389l-1.158-1.9782A5.3252,5.3252,0,0,1,286.3508,308.4026Z" transform="translate(-78.3058 -164.017)" style="fill: url(#linear-gradient-7)" />
				<path d="M286.3508,308.4026l-42.1767,24.3339a5.0976,5.0976,0,0,1-1.8607.6323l.84,1.53L290,307.7816v-.6389l-1.158-1.9782A5.3252,5.3252,0,0,1,286.3508,308.4026Z" transform="translate(-78.3058 -164.017)" style="fill: url(#linear-gradient-8)" />
			</g>
		</g>
	</g>
</svg>
