<?xml version="1.0" encoding="UTF-8"?><svg id="Layer_2" xmlns="http://www.w3.org/2000/svg" viewBox="0 0 142.03 149.34"><defs><style>.cls-1{fill:#d10;fill-rule:evenodd;}</style></defs><g id="Layer_1-2"><path class="cls-1" d="M121.47,74.68l20.56-23.07-30.2-6.58,3.08-30.75-28.3,12.42L71.01,0l-15.59,26.68L27.13,14.25l3.07,30.75L0,51.59l20.56,23.08L0,97.74l30.2,6.58-3.08,30.75,28.3-12.42,15.6,26.69,15.59-26.68,28.3,12.43-3.07-30.76,30.2-6.58-20.56-23.08Zm9.98,17.36l-17.81-6.09-11.82-15.36,15.72,5.84,13.91,15.61Zm-47.72,27.43l-10.65,18.24v-19.34l11.07-16.16-.42,17.26Zm-18.66-75.62l-18.33-6.52-10.97-14.81,19.22,8.44,10.07,12.88Zm22-12.88l19.22-8.44-10.98,14.8-18.33,6.52,10.08-12.88Zm20.57,14.92l-9.56,13.56,.54-19.7,11.13-15.01-2.12,21.15Zm-36.61,68.21l-12.83-18.71,12.83-17.4,12.83,17.4-12.83,18.71Zm-22.81-49.42l-.62-22.71,21.39,7.6v22.1l-20.76-7Zm24.86-15.1l21.39-7.6-.62,22.71-20.76,7v-22.1Zm-38.65-3.7l-2.11-21.15,11.12,15.02,.54,19.69-9.55-13.56Zm33.29,29.7l-12.82,17.4-21.78-6.42,13.83-17.98,20.77,7Zm-9.81,26.62l11.08,16.16v19.35l-10.66-18.25-.41-17.26Zm16.44-26.62l20.77-7,13.83,17.98-21.78,6.42-12.82-17.4Zm59.97-21.47l-16.18,18.15-19.08-7.09,11.46-16.25,23.8,5.19ZM71.02,8.12l12.28,21.01-12.28,15.68-12.27-15.69,12.27-21.01ZM7.73,54.1l23.8-5.18,11.46,16.26-19.08,7.08L7.73,54.1Zm16.77,22.31l15.73-5.83-11.82,15.36-17.82,6.08,13.92-15.61Zm-13.02,19.64l18.21-6.22,18.97,5.59-16.34,5.17-20.84-4.54Zm22.84,8.21l19.37-6.13,.49,20.59-22.29,9.79,2.43-24.25Zm53.51,14.47l.5-20.6,19.37,6.13,2.42,24.25-22.29-9.79Zm21.87-18.12l-16.34-5.18,18.98-5.59,18.21,6.23-20.85,4.54Z"/></g></svg>